<svg width="203" height="203" viewBox="0 0 203 203" fill="none" xmlns="http://www.w3.org/2000/svg">
<path d="M173.253 30.4177C212.696 69.8606 212.696 133.81 173.253 173.253C133.81 212.696 69.8607 212.696 30.4178 173.253C-9.02517 133.81 -9.02517 69.8606 30.4178 30.4177C69.8607 -9.02529 133.81 -9.02529 173.253 30.4177Z" fill="#5C77F2"/>
<path d="M151.25 151.502C123.845 178.906 34.5998 169.157 34.5998 169.157C34.5998 169.157 24.8503 79.9115 52.2547 52.5071C79.6591 25.1028 168.243 35.5138 168.243 35.5138C168.243 35.5138 178.654 124.098 151.25 151.502Z" fill="white"/>
<path d="M121.397 122.536C109.681 134.252 90.6865 134.252 78.9707 122.536C67.255 110.82 67.255 91.8254 78.9707 80.1097C88.4382 70.6423 111.926 74.8599 120.592 76.8273C122.641 77.2926 124.214 78.8654 124.68 80.915C126.647 89.5811 130.865 113.069 121.397 122.536Z" fill="#5C77F2"/>
</svg>
