<svg width="320" height="320" viewBox="0 0 320 320" fill="none" xmlns="http://www.w3.org/2000/svg">
<path d="M160.337 27C96.0331 27 51.9123 37.0994 36.4937 41.2505C32.9089 42.2156 30.666 45.6081 31.0407 49.3042C33.0299 68.9284 40.1052 130.388 54.7153 176.772C57.5073 185.637 67.5401 189.57 75.9096 185.542L116.131 166.184C122.011 163.354 129.021 164.385 133.84 168.788L148.05 181.773C154.755 187.9 165.207 187.215 171.057 180.266L206.495 138.169C213.804 129.486 227.572 130.972 232.864 141.013L239.267 153.164C246.287 166.486 266.134 163.606 269.086 148.838L288.844 49.968C289.639 45.9934 287.328 42.0846 283.413 41.0452C267.335 36.7765 223.605 27 160.337 27Z" fill="#5C77F0"/>
<path d="M243.844 203H76.8305C70.1657 203 66.4789 210.583 70.7478 215.705C91.4238 240.514 137.826 293 160.337 293C182.848 293 229.251 240.514 249.927 215.705C254.195 210.583 250.509 203 243.844 203Z" fill="#5C77F0"/>
</svg>
