<svg width="24" height="24" viewBox="0 0 24 24" fill="none" xmlns="http://www.w3.org/2000/svg">
<path fill-rule="evenodd" clip-rule="evenodd" d="M7.38304 5.969C8.64404 5.387 10.164 4.998 12 4.998C19.633 4.998 21.927 11.616 21.949 11.684L22.054 12L21.949 12.316C21.935 12.358 21.004 15.024 18.39 16.976L21.707 20.293L20.293 21.707L16.615 18.029C15.354 18.611 13.835 19 12 19C4.36704 19 2.07305 12.382 2.05105 12.315L1.94604 11.999L2.05105 11.683C2.06505 11.641 2.99504 8.975 5.60804 7.023L2.29304 3.707L3.70704 2.293L7.38304 5.969ZM15.428 14.014L16.969 15.555C18.262 14.6627 19.2849 13.4322 19.926 11.998C19.425 10.845 17.351 6.998 12 6.998C10.9507 6.99026 9.9076 7.16033 8.91504 7.501L9.98504 8.571C10.581 8.217 11.265 7.999 12 7.999C12.996 8.00501 13.9533 8.38515 14.682 9.064C14.288 9.198 14 9.561 14 10C14 10.2652 14.1054 10.5196 14.2929 10.7071C14.4805 10.8946 14.7348 11 15 11C15.1421 10.999 15.2823 10.9672 15.4109 10.9067C15.5396 10.8463 15.6535 10.7587 15.745 10.65C15.901 11.075 16 11.525 16 11.999C16 12.734 15.782 13.418 15.428 14.014ZM4.59504 11.011C4.34804 11.414 4.17704 11.764 4.07404 12C4.52304 13.035 6.24904 16.23 10.462 16.878L13.321 16.907C13.9212 16.8314 14.5119 16.6943 15.084 16.498L7.02904 8.444C6.60287 8.73301 6.20509 9.06182 5.84104 9.426L4.59504 11.011Z" fill="black"/>
</svg>
